# xmcd
#
# Track frame offsets:
#	150
#	16979
#	32582
#	49535
#	70486
#	86561
#	101260
#	117052
#	131455
#	146279
#	162536
#	176443
#
# Disc length: 2529 seconds
#
# Revision: 0
# Processed by: cddbd v1.5.1PL0 Copyright (c) Steve Scherf et al.
# Submitted via: dBpowerAMP V4.0
#
DISCID=9209df0c
DTITLE=Dolly Parton - The Great[CDOne)
DYEAR=2004
DGENRE=Country
TTITLE0=Jolene
TTITLE1=Country Road
TTITLE2=Crippled Blind
TTITLE3=He's Alive
TTITLE4=Cross My Heart
TTITLE5=More Where That Came From
TTITLE6=Slow Dancing With The Moon
TTITLE7=Eagle When She Flies
TTITLE8=Speakin' Of The Devil
TTITLE9=What A Heartache
TTITLE10=The Seeker
TTITLE11=Wings of Dove w/ Loretta Lynn
EXTD=
EXTT0=
EXTT1=
EXTT2=
EXTT3=
EXTT4=
EXTT5=
EXTT6=
EXTT7=
EXTT8=
EXTT9=
EXTT10=
EXTT11=
PLAYORDER=
